<?xml version="1.0" encoding="UTF-8" standalone="no"?>
<!-- Generator: Adobe Illustrator 17.0.0, SVG Export Plug-In . SVG Version: 6.00 Build 0)  -->

<svg
   xmlns:ns="&amp;#38;#38;#38;#38;#38;ns_sfw;"
   xmlns:dc="http://purl.org/dc/elements/1.1/"
   xmlns:cc="http://creativecommons.org/ns#"
   xmlns:rdf="http://www.w3.org/1999/02/22-rdf-syntax-ns#"
   xmlns:svg="http://www.w3.org/2000/svg"
   xmlns="http://www.w3.org/2000/svg"
   xmlns:sodipodi="http://sodipodi.sourceforge.net/DTD/sodipodi-0.dtd"
   xmlns:inkscape="http://www.inkscape.org/namespaces/inkscape"
   version="1.1"
   x="0px"
   y="0px"
   width="1371.6px"
   height="1371.6px"
   viewBox="0 0 1371.6 1371.6"
   enable-background="new 0 0 1371.6 1371.6"
   xml:space="preserve"
   id="svg3336"
   inkscape:version="0.91 r13725"
   sodipodi:docname="icon.svg"><defs
     id="defs3364" /><sodipodi:namedview
     pagecolor="#ffffff"
     bordercolor="#666666"
     borderopacity="1"
     objecttolerance="10"
     gridtolerance="10"
     guidetolerance="10"
     inkscape:pageopacity="0"
     inkscape:pageshadow="2"
     inkscape:window-width="1920"
     inkscape:window-height="1018"
     id="namedview3362"
     showgrid="false"
     inkscape:zoom="0.44619423"
     inkscape:cx="685.79999"
     inkscape:cy="738.28221"
     inkscape:window-x="-8"
     inkscape:window-y="-8"
     inkscape:window-maximized="1"
     inkscape:current-layer="svg3336" /><metadata
     id="metadata3338"><ns:sfw><ns:slices /><ns:sliceSourceBounds
         width="1079.91"
         height="1367.408"
         bottomLeftOrigin="true"
         x="-234.016"
         y="-286.092" /></ns:sfw><rdf:RDF><cc:Work
         rdf:about=""><dc:format>image/svg+xml</dc:format><dc:type
           rdf:resource="http://purl.org/dc/dcmitype/StillImage" /><dc:title /></cc:Work></rdf:RDF></metadata><g
     id="Shape_18_copy_1_"
     enable-background="new    "
     opacity="0.502"><g
       id="Shape_18_copy"><g
         id="g3352"><polygon
           points="703.219,683.623 698.155,695.438 698.865,182.88      664.026,148.046 663.338,680.291 212.916,938 230.336,968.167 685.8,705.394 684.814,703.093 694.922,702.98 690.155,714.103      1143.058,949.234 1164.832,923.109    "
           id="polygon3354"
           clip-rule="evenodd"
           fill-rule="evenodd"
           fill="#FFFFFF" /></g></g></g><g
     id="Shape_20_copy_1_"
     enable-background="new    "><g
       id="Shape_20_copy"><g
         id="g3358"><path
           fill-rule="evenodd"
           clip-rule="evenodd"
           fill="#FFFFFF"
           d="M1172.718,936.171h0.824l2.218-498.411l-7.035-4.166     l0.189-0.341l-470.05-273.635V91.44L250.903,386.114l-57.2,31.898l4.355,531.223l1.297-0.324l-1.348,2.316l466.018,271.956     v61.332l501.303-341.361l8.505-5.133L1172.718,936.171z M665.741,194.562l447.104,247.473L684.288,675.308L244.653,428.044     L665.741,194.562z M698.865,707.025l439.818-239.87l0.02,451.38l-439.838,265.454V707.025z M232.897,931.221V461.399     l431.129,242.479v478.15L232.897,931.221z"
           id="path3360" /></g></g></g><g
     style="fill:#000000;stroke:none"
     transform="matrix(1.7001368,0,0,-1.7471235,-133.16332,1506.9437)"
     id="g3384"><path
       inkscape:connector-curvature="0"
       d="m 418,708 c -33,-34 -40,-38 -58,-28 -34,18 -53,5 -45,-30 l 7,-30 -71,0 c -60,0 -74,-3 -95,-24 -15,-13 -26,-30 -26,-38 0,-25 48,-58 85,-58 19,0 38,-6 42,-14 4,-8 21,-16 37,-18 30,-3 30,-3 27,-61 -2,-52 -1,-58 16,-55 14,3 17,11 15,42 -4,39 18,76 45,76 16,0 17,8 -11,-75 l -23,-70 -41,-3 c -50,-4 -59,-14 -64,-75 l -3,-48 230,0 230,0 -3,48 c -5,61 -14,71 -64,75 l -41,3 -23,70 c -28,83 -27,75 -11,75 27,0 49,-37 45,-76 -2,-30 1,-39 15,-42 14,-3 17,4 17,45 0,27 -7,58 -15,70 -8,12 -12,28 -9,37 8,21 -22,32 -41,16 -12,-10 -16,-9 -21,5 -10,25 4,117 18,127 17,11 48,-27 48,-59 0,-21 3,-23 14,-14 17,14 121,11 121,-4 0,-5 -27,-11 -60,-13 l -60,-3 0,-44 c 0,-44 1,-45 31,-45 19,0 34,6 38,15 3,9 19,15 41,15 37,0 85,33 85,58 0,8 -11,25 -26,38 -21,21 -35,24 -95,24 l -71,0 7,30 c 8,35 -11,48 -44,30 -18,-9 -26,-5 -58,27 -52,52 -86,52 -135,1 z m 91,-12 c 7,-8 11,-36 10,-63 -1,-26 1,-73 5,-103 6,-49 5,-58 -17,-85 l -25,-29 -21,34 c -19,29 -21,43 -15,85 4,28 7,72 5,99 -3,66 28,99 58,62 z M 404,627 c 8,-30 8,-102 -1,-110 -3,-4 -12,-2 -19,4 -21,17 -44,3 -44,-28 -1,-25 -2,-26 -11,-10 -6,11 -9,32 -5,48 l 5,28 -59,3 c -33,2 -61,8 -63,13 -3,15 102,18 119,4 11,-9 14,-7 14,13 0,31 27,69 44,62 8,-3 17,-15 20,-27 z m 40,-232 c 8,-21 72,-20 84,2 16,27 44,9 36,-24 -12,-55 -10,-54 -81,-51 l -67,3 -7,35 c -4,19 -5,38 -3,42 8,13 32,9 38,-7 z M 380,277 c -1,-27 -17,-37 -48,-31 -33,7 -47,18 -38,32 7,12 86,11 86,-1 z m 169,-1 c 23,-28 3,-41 -64,-41 -67,0 -87,13 -64,41 15,19 113,19 128,0 z m 126,-7 c 0,-19 -66,-34 -76,-17 -18,28 -9,36 34,33 26,-2 42,-8 42,-16 z"
       id="path3386" /><path
       inkscape:connector-curvature="0"
       d="m 467,644 c -14,-14 -6,-24 19,-24 16,0 24,5 22,13 -5,14 -31,21 -41,11 z"
       id="path3388" /></g></svg>